<?xml version="1.0" standalone="no"?>
<!DOCTYPE svg PUBLIC "-//W3C//DTD SVG 20010904//EN"
 "http://www.w3.org/TR/2001/REC-SVG-20010904/DTD/svg10.dtd">
<svg version="1.0" xmlns="http://www.w3.org/2000/svg"
 width="962.000000pt" height="962.000000pt" viewBox="0 0 962.000000 962.000000"
 preserveAspectRatio="xMidYMid meet">
<metadata>
Created by potrace 1.14, written by Peter Selinger 2001-2017
</metadata>
<g transform="translate(0.000000,962.000000) scale(0.100000,-0.100000)"
fill="#000000" stroke="none">
<path d="M4425 9319 c-257 -22 -315 -29 -535 -64 -451 -71 -947 -228 -1362
-430 -570 -277 -1070 -667 -1449 -1130 -132 -162 -255 -339 -358 -515 -25 -41
-56 -95 -70 -119 -29 -48 -20 -45 -171 -56 -52 -3 -108 -8 -125 -10 -29 -4
-123 -15 -175 -20 -14 -1 -54 -6 -90 -11 -36 -4 -68 -7 -72 -6 -5 1 -8 -150
-8 -336 l0 -339 29 -1 c66 -2 185 -47 227 -86 l26 -24 -16 -63 c-10 -35 -19
-75 -22 -89 -3 -14 -9 -38 -14 -55 -4 -16 -12 -48 -16 -70 -4 -22 -8 -44 -10
-50 -7 -29 -44 -247 -49 -290 -3 -27 -8 -61 -10 -75 -3 -14 -7 -52 -10 -85 -3
-33 -8 -71 -10 -85 -25 -150 -25 -798 -1 -1005 2 -17 7 -61 11 -100 6 -69 11
-107 20 -155 3 -14 7 -47 11 -75 3 -27 12 -81 19 -120 8 -38 17 -83 20 -100
31 -175 158 -603 225 -760 12 -27 25 -59 30 -70 363 -859 992 -1558 1820
-2022 247 -138 549 -273 790 -353 93 -31 252 -80 274 -85 12 -3 70 -18 130
-34 61 -16 112 -29 115 -29 4 1 24 -3 46 -10 22 -6 56 -13 75 -16 19 -3 46 -8
60 -11 14 -2 36 -7 50 -10 55 -11 260 -41 340 -50 30 -3 71 -8 90 -10 232 -27
948 -27 1090 0 12 2 49 7 83 10 35 3 72 7 83 9 12 2 45 7 74 11 29 4 62 9 74
11 11 2 38 6 61 10 22 3 58 9 80 14 22 5 56 12 75 15 19 3 64 13 100 21 36 9
76 18 90 20 14 3 88 23 165 45 77 22 147 42 155 44 19 4 218 73 245 84 11 5
74 30 140 57 282 112 602 283 865 462 109 74 145 100 220 159 421 328 785 742
1050 1198 57 98 200 376 200 389 0 3 12 31 26 63 45 100 52 115 94 233 56 157
135 431 154 535 2 11 9 38 15 60 5 22 12 56 15 75 3 19 8 46 11 60 3 14 7 41
10 60 3 19 7 44 9 56 2 12 7 45 11 74 4 29 8 60 10 69 1 9 6 48 10 86 4 39 8
83 10 99 23 185 23 815 0 957 -2 13 -6 53 -10 88 -5 62 -8 86 -20 168 -4 21
-8 56 -11 78 -3 22 -12 72 -20 110 -7 39 -16 88 -20 110 -3 22 -21 100 -40
175 -19 74 -34 142 -34 151 0 37 120 103 213 116 29 4 55 6 60 5 4 -1 7 150 7
336 0 264 -3 339 -12 339 -21 1 -135 14 -155 18 -11 2 -51 6 -89 10 -38 4 -82
8 -99 10 -16 2 -73 7 -125 11 -52 3 -101 8 -110 9 -8 2 -23 4 -32 4 -10 1 -18
7 -18 15 0 8 -6 21 -12 28 -7 8 -26 39 -42 69 -49 93 -197 319 -208 319 -5 0
-8 6 -8 13 0 7 -10 23 -23 37 -12 14 -33 41 -47 60 -23 35 -126 162 -185 230
-67 78 -356 361 -440 431 -398 332 -806 571 -1300 764 -109 42 -309 111 -395
135 -25 7 -56 16 -70 20 -23 8 -69 20 -96 25 -6 2 -49 12 -95 23 -85 21 -306
65 -389 78 -25 3 -53 8 -64 10 -10 2 -44 6 -75 9 -31 4 -67 8 -81 11 -14 2
-59 6 -100 10 -41 3 -86 8 -100 11 -42 9 -719 11 -815 2z"/>
</g>
</svg>
